<?xml version="1.0" encoding="UTF-8" standalone="no"?>
<!-- Created with Inkscape (http://www.inkscape.org/) -->

<svg
   xmlns:dc="http://purl.org/dc/elements/1.1/"
   xmlns:cc="http://creativecommons.org/ns#"
   xmlns:rdf="http://www.w3.org/1999/02/22-rdf-syntax-ns#"
   xmlns:svg="http://www.w3.org/2000/svg"
   xmlns="http://www.w3.org/2000/svg"
   xmlns:sodipodi="http://sodipodi.sourceforge.net/DTD/sodipodi-0.dtd"
   xmlns:inkscape="http://www.inkscape.org/namespaces/inkscape"
   version="1.1"
   id="svg2"
   xml:space="preserve"
   width="592"
   height="112"
   viewBox="0 0 592.00003 112"
   sodipodi:docname="hashOfElm.svg"
   inkscape:version="0.92.2 5c3e80d, 2017-08-06"><metadata
     id="metadata8"><rdf:RDF><cc:Work
         rdf:about=""><dc:format>image/svg+xml</dc:format><dc:type
           rdf:resource="http://purl.org/dc/dcmitype/StillImage" /><dc:title></dc:title></cc:Work></rdf:RDF></metadata><defs
     id="defs6"><clipPath
       clipPathUnits="userSpaceOnUse"
       id="clipPath20"><path
         d="M 54,541 H 787 V 76.301 H 54 Z"
         id="path18"
         inkscape:connector-curvature="0" /></clipPath><clipPath
       clipPathUnits="userSpaceOnUse"
       id="clipPath30"><path
         d="m 54,541 h 90 V 451 H 54 Z"
         id="path28"
         inkscape:connector-curvature="0" /></clipPath><clipPath
       clipPathUnits="userSpaceOnUse"
       id="clipPath42"><path
         d="m 144,541 h 90 v -90 h -90 z"
         id="path40"
         inkscape:connector-curvature="0" /></clipPath><clipPath
       clipPathUnits="userSpaceOnUse"
       id="clipPath54"><path
         d="m 234,541 h 90 v -90 h -90 z"
         id="path52"
         inkscape:connector-curvature="0" /></clipPath><clipPath
       clipPathUnits="userSpaceOnUse"
       id="clipPath66"><path
         d="m 324,541 h 90 v -90 h -90 z"
         id="path64"
         inkscape:connector-curvature="0" /></clipPath><clipPath
       clipPathUnits="userSpaceOnUse"
       id="clipPath78"><path
         d="m 414,541 h 90 v -90 h -90 z"
         id="path76"
         inkscape:connector-curvature="0" /></clipPath><clipPath
       clipPathUnits="userSpaceOnUse"
       id="clipPath90"><path
         d="m 504,541 h 90 v -90 h -90 z"
         id="path88"
         inkscape:connector-curvature="0" /></clipPath><clipPath
       clipPathUnits="userSpaceOnUse"
       id="clipPath102"><path
         d="m 594,541 h 90 v -90 h -90 z"
         id="path100"
         inkscape:connector-curvature="0" /></clipPath><clipPath
       clipPathUnits="userSpaceOnUse"
       id="clipPath114"><path
         d="m 684,541 h 90 v -90 h -90 z"
         id="path112"
         inkscape:connector-curvature="0" /></clipPath><clipPath
       clipPathUnits="userSpaceOnUse"
       id="clipPath126"><path
         d="m 54,448 h 90 V 358 H 54 Z"
         id="path124"
         inkscape:connector-curvature="0" /></clipPath><clipPath
       clipPathUnits="userSpaceOnUse"
       id="clipPath138"><path
         d="m 144,448 h 90 v -90 h -90 z"
         id="path136"
         inkscape:connector-curvature="0" /></clipPath><clipPath
       clipPathUnits="userSpaceOnUse"
       id="clipPath150"><path
         d="m 234,448 h 90 v -90 h -90 z"
         id="path148"
         inkscape:connector-curvature="0" /></clipPath><clipPath
       clipPathUnits="userSpaceOnUse"
       id="clipPath162"><path
         d="m 324,448 h 90 v -90 h -90 z"
         id="path160"
         inkscape:connector-curvature="0" /></clipPath><clipPath
       clipPathUnits="userSpaceOnUse"
       id="clipPath174"><path
         d="m 414,448 h 90 v -90 h -90 z"
         id="path172"
         inkscape:connector-curvature="0" /></clipPath><clipPath
       clipPathUnits="userSpaceOnUse"
       id="clipPath186"><path
         d="m 504,448 h 90 v -90 h -90 z"
         id="path184"
         inkscape:connector-curvature="0" /></clipPath><clipPath
       clipPathUnits="userSpaceOnUse"
       id="clipPath198"><path
         d="m 594,448 h 90 v -90 h -90 z"
         id="path196"
         inkscape:connector-curvature="0" /></clipPath><clipPath
       clipPathUnits="userSpaceOnUse"
       id="clipPath210"><path
         d="m 684,448 h 90 v -90 h -90 z"
         id="path208"
         inkscape:connector-curvature="0" /></clipPath><clipPath
       clipPathUnits="userSpaceOnUse"
       id="clipPath222"><path
         d="m 54,355 h 90 V 265 H 54 Z"
         id="path220"
         inkscape:connector-curvature="0" /></clipPath><clipPath
       clipPathUnits="userSpaceOnUse"
       id="clipPath234"><path
         d="m 144,355 h 90 v -90 h -90 z"
         id="path232"
         inkscape:connector-curvature="0" /></clipPath><clipPath
       clipPathUnits="userSpaceOnUse"
       id="clipPath246"><path
         d="m 54,262 h 90 V 172 H 54 Z"
         id="path244"
         inkscape:connector-curvature="0" /></clipPath><clipPath
       clipPathUnits="userSpaceOnUse"
       id="clipPath258"><path
         d="m 144,262 h 90 v -90 h -90 z"
         id="path256"
         inkscape:connector-curvature="0" /></clipPath><clipPath
       clipPathUnits="userSpaceOnUse"
       id="clipPath270"><path
         d="m 234,262 h 90 v -90 h -90 z"
         id="path268"
         inkscape:connector-curvature="0" /></clipPath><clipPath
       clipPathUnits="userSpaceOnUse"
       id="clipPath282"><path
         d="m 324,262 h 90 v -90 h -90 z"
         id="path280"
         inkscape:connector-curvature="0" /></clipPath><clipPath
       clipPathUnits="userSpaceOnUse"
       id="clipPath294"><path
         d="m 414,262 h 90 v -90 h -90 z"
         id="path292"
         inkscape:connector-curvature="0" /></clipPath><clipPath
       clipPathUnits="userSpaceOnUse"
       id="clipPath306"><path
         d="m 504,262 h 90 v -90 h -90 z"
         id="path304"
         inkscape:connector-curvature="0" /></clipPath><clipPath
       clipPathUnits="userSpaceOnUse"
       id="clipPath318"><path
         d="m 594,262 h 90 v -90 h -90 z"
         id="path316"
         inkscape:connector-curvature="0" /></clipPath><clipPath
       clipPathUnits="userSpaceOnUse"
       id="clipPath330"><path
         d="m 684,262 h 90 v -90 h -90 z"
         id="path328"
         inkscape:connector-curvature="0" /></clipPath><clipPath
       clipPathUnits="userSpaceOnUse"
       id="clipPath342"><path
         d="M 643.301,112.301 H 782.5 v -36 H 643.301 Z"
         id="path340"
         inkscape:connector-curvature="0" /></clipPath><clipPath
       clipPathUnits="userSpaceOnUse"
       id="clipPath348"><path
         d="M 646.301,112.301 H 779.5 c 1.656,0 3,-1.344 3,-3 v -30 c 0,-1.656 -1.344,-3 -3,-3 H 646.301 c -1.656,0 -3,1.344 -3,3 v 30 c 0,1.656 1.344,3 3,3 z"
         id="path346"
         inkscape:connector-curvature="0" /></clipPath><clipPath
       clipPathUnits="userSpaceOnUse"
       id="clipPath358"><path
         d="M 54,541 H 787 V 76.301 H 54 Z"
         id="path356"
         inkscape:connector-curvature="0" /></clipPath><clipPath
       clipPathUnits="userSpaceOnUse"
       id="clipPath366"><path
         d="M 652,112 H 774 V 91 H 652 Z"
         id="path364"
         inkscape:connector-curvature="0" /></clipPath><clipPath
       clipPathUnits="userSpaceOnUse"
       id="clipPath378"><path
         d="M 54,541 H 787 V 76.301 H 54 Z"
         id="path376"
         inkscape:connector-curvature="0" /></clipPath><clipPath
       clipPathUnits="userSpaceOnUse"
       id="clipPath384"><path
         d="m 676,93 h 35 V 75 h -35 z"
         id="path382"
         inkscape:connector-curvature="0" /></clipPath><clipPath
       clipPathUnits="userSpaceOnUse"
       id="clipPath396"><path
         d="M 54,541 H 787 V 76.301 H 54 Z"
         id="path394"
         inkscape:connector-curvature="0" /></clipPath><clipPath
       clipPathUnits="userSpaceOnUse"
       id="clipPath402"><path
         d="m 702,93 h 22 V 75 h -22 z"
         id="path400"
         inkscape:connector-curvature="0" /></clipPath><clipPath
       clipPathUnits="userSpaceOnUse"
       id="clipPath414"><path
         d="M 54,541 H 787 V 76.301 H 54 Z"
         id="path412"
         inkscape:connector-curvature="0" /></clipPath><clipPath
       clipPathUnits="userSpaceOnUse"
       id="clipPath420"><path
         d="m 715,93 h 35 V 75 h -35 z"
         id="path418"
         inkscape:connector-curvature="0" /></clipPath><clipPath
       clipPathUnits="userSpaceOnUse"
       id="clipPath432"><path
         d="m 69,526 h 60 V 466 H 69 Z"
         id="path430"
         inkscape:connector-curvature="0" /></clipPath><clipPath
       clipPathUnits="userSpaceOnUse"
       id="clipPath442"><path
         d="m 159,526 h 60 v -60 h -60 z"
         id="path440"
         inkscape:connector-curvature="0" /></clipPath><clipPath
       clipPathUnits="userSpaceOnUse"
       id="clipPath452"><path
         d="m 249,526 h 60 v -60 h -60 z"
         id="path450"
         inkscape:connector-curvature="0" /></clipPath><clipPath
       clipPathUnits="userSpaceOnUse"
       id="clipPath462"><path
         d="m 339,526 h 60 v -60 h -60 z"
         id="path460"
         inkscape:connector-curvature="0" /></clipPath><clipPath
       clipPathUnits="userSpaceOnUse"
       id="clipPath472"><path
         d="m 429,526 h 60 v -60 h -60 z"
         id="path470"
         inkscape:connector-curvature="0" /></clipPath><clipPath
       clipPathUnits="userSpaceOnUse"
       id="clipPath482"><path
         d="m 519,526 h 60 v -60 h -60 z"
         id="path480"
         inkscape:connector-curvature="0" /></clipPath><clipPath
       clipPathUnits="userSpaceOnUse"
       id="clipPath492"><path
         d="m 609,526 h 60 v -60 h -60 z"
         id="path490"
         inkscape:connector-curvature="0" /></clipPath><clipPath
       clipPathUnits="userSpaceOnUse"
       id="clipPath502"><path
         d="m 699,526 h 60 v -60 h -60 z"
         id="path500"
         inkscape:connector-curvature="0" /></clipPath><clipPath
       clipPathUnits="userSpaceOnUse"
       id="clipPath512"><path
         d="m 69,433 h 60 V 373 H 69 Z"
         id="path510"
         inkscape:connector-curvature="0" /></clipPath><clipPath
       clipPathUnits="userSpaceOnUse"
       id="clipPath522"><path
         d="m 159,433 h 60 v -60 h -60 z"
         id="path520"
         inkscape:connector-curvature="0" /></clipPath><clipPath
       clipPathUnits="userSpaceOnUse"
       id="clipPath532"><path
         d="m 249,433 h 60 v -60 h -60 z"
         id="path530"
         inkscape:connector-curvature="0" /></clipPath><clipPath
       clipPathUnits="userSpaceOnUse"
       id="clipPath542"><path
         d="m 339,433 h 60 v -60 h -60 z"
         id="path540"
         inkscape:connector-curvature="0" /></clipPath><clipPath
       clipPathUnits="userSpaceOnUse"
       id="clipPath552"><path
         d="m 429,433 h 60 v -60 h -60 z"
         id="path550"
         inkscape:connector-curvature="0" /></clipPath><clipPath
       clipPathUnits="userSpaceOnUse"
       id="clipPath562"><path
         d="m 519,433 h 60 v -60 h -60 z"
         id="path560"
         inkscape:connector-curvature="0" /></clipPath><clipPath
       clipPathUnits="userSpaceOnUse"
       id="clipPath572"><path
         d="m 609,433 h 60 v -60 h -60 z"
         id="path570"
         inkscape:connector-curvature="0" /></clipPath><clipPath
       clipPathUnits="userSpaceOnUse"
       id="clipPath582"><path
         d="m 699,433 h 60 v -60 h -60 z"
         id="path580"
         inkscape:connector-curvature="0" /></clipPath><clipPath
       clipPathUnits="userSpaceOnUse"
       id="clipPath592"><path
         d="m 69,340 h 60 V 280 H 69 Z"
         id="path590"
         inkscape:connector-curvature="0" /></clipPath><clipPath
       clipPathUnits="userSpaceOnUse"
       id="clipPath602"><path
         d="m 159,340 h 60 v -60 h -60 z"
         id="path600"
         inkscape:connector-curvature="0" /></clipPath><clipPath
       clipPathUnits="userSpaceOnUse"
       id="clipPath612"><path
         d="m 234,355 h 90 v -90 h -90 z"
         id="path610"
         inkscape:connector-curvature="0" /></clipPath><clipPath
       clipPathUnits="userSpaceOnUse"
       id="clipPath624"><path
         d="m 324,355 h 90 v -90 h -90 z"
         id="path622"
         inkscape:connector-curvature="0" /></clipPath><clipPath
       clipPathUnits="userSpaceOnUse"
       id="clipPath636"><path
         d="m 414,355 h 90 v -90 h -90 z"
         id="path634"
         inkscape:connector-curvature="0" /></clipPath><clipPath
       clipPathUnits="userSpaceOnUse"
       id="clipPath648"><path
         d="m 504,355 h 90 v -90 h -90 z"
         id="path646"
         inkscape:connector-curvature="0" /></clipPath><clipPath
       clipPathUnits="userSpaceOnUse"
       id="clipPath660"><path
         d="m 594,355 h 90 v -90 h -90 z"
         id="path658"
         inkscape:connector-curvature="0" /></clipPath><clipPath
       clipPathUnits="userSpaceOnUse"
       id="clipPath672"><path
         d="m 684,355 h 90 v -90 h -90 z"
         id="path670"
         inkscape:connector-curvature="0" /></clipPath><clipPath
       clipPathUnits="userSpaceOnUse"
       id="clipPath684"><path
         d="m 249,340 h 60 v -60 h -60 z"
         id="path682"
         inkscape:connector-curvature="0" /></clipPath><clipPath
       clipPathUnits="userSpaceOnUse"
       id="clipPath694"><path
         d="m 339,340 h 60 v -60 h -60 z"
         id="path692"
         inkscape:connector-curvature="0" /></clipPath><clipPath
       clipPathUnits="userSpaceOnUse"
       id="clipPath704"><path
         d="m 429,340 h 60 v -60 h -60 z"
         id="path702"
         inkscape:connector-curvature="0" /></clipPath><clipPath
       clipPathUnits="userSpaceOnUse"
       id="clipPath714"><path
         d="m 519,340 h 60 v -60 h -60 z"
         id="path712"
         inkscape:connector-curvature="0" /></clipPath><clipPath
       clipPathUnits="userSpaceOnUse"
       id="clipPath724"><path
         d="m 609,340 h 60 v -60 h -60 z"
         id="path722"
         inkscape:connector-curvature="0" /></clipPath><clipPath
       clipPathUnits="userSpaceOnUse"
       id="clipPath734"><path
         d="m 699,340 h 60 v -60 h -60 z"
         id="path732"
         inkscape:connector-curvature="0" /></clipPath><clipPath
       clipPathUnits="userSpaceOnUse"
       id="clipPath744"><path
         d="m 69,247 h 60 V 187 H 69 Z"
         id="path742"
         inkscape:connector-curvature="0" /></clipPath><clipPath
       clipPathUnits="userSpaceOnUse"
       id="clipPath754"><path
         d="m 159,247 h 60 v -60 h -60 z"
         id="path752"
         inkscape:connector-curvature="0" /></clipPath><clipPath
       clipPathUnits="userSpaceOnUse"
       id="clipPath764"><path
         d="m 249,247 h 60 v -60 h -60 z"
         id="path762"
         inkscape:connector-curvature="0" /></clipPath><clipPath
       clipPathUnits="userSpaceOnUse"
       id="clipPath774"><path
         d="m 339,247 h 60 v -60 h -60 z"
         id="path772"
         inkscape:connector-curvature="0" /></clipPath><clipPath
       clipPathUnits="userSpaceOnUse"
       id="clipPath784"><path
         d="m 429,247 h 60 v -60 h -60 z"
         id="path782"
         inkscape:connector-curvature="0" /></clipPath><clipPath
       clipPathUnits="userSpaceOnUse"
       id="clipPath794"><path
         d="m 519,247 h 60 v -60 h -60 z"
         id="path792"
         inkscape:connector-curvature="0" /></clipPath><clipPath
       clipPathUnits="userSpaceOnUse"
       id="clipPath804"><path
         d="m 609,247 h 60 v -60 h -60 z"
         id="path802"
         inkscape:connector-curvature="0" /></clipPath><clipPath
       clipPathUnits="userSpaceOnUse"
       id="clipPath814"><path
         d="m 699,247 h 60 v -60 h -60 z"
         id="path812"
         inkscape:connector-curvature="0" /></clipPath></defs><sodipodi:namedview
     pagecolor="#ffffff"
     bordercolor="#666666"
     borderopacity="1"
     objecttolerance="10"
     gridtolerance="10"
     guidetolerance="10"
     inkscape:pageopacity="0"
     inkscape:pageshadow="2"
     inkscape:window-width="3200"
     inkscape:window-height="1720"
     id="namedview4"
     showgrid="false"
     fit-margin-top="0"
     fit-margin-left="0"
     fit-margin-right="0"
     fit-margin-bottom="0"
     inkscape:zoom="1.6827953"
     inkscape:cx="309.28466"
     inkscape:cy="-114.05109"
     inkscape:window-x="0"
     inkscape:window-y="36"
     inkscape:window-maximized="0"
     inkscape:current-layer="g10" /><g
     id="g10"
     inkscape:groupmode="layer"
     inkscape:label="outElm3"
     transform="matrix(1.3333333,0,0,-1.3333333,-75.999998,717.33332)"><g
       id="g24"><g
         id="g26"
         clip-path="url(#clipPath30)"><g
           id="g32"
           transform="matrix(1,0,0,-1,0,595)"><path
             d="m 70.5,61.5 h 57 c 4.969,0 9,4.031 9,9 v 57 c 0,4.969 -4.031,9 -9,9 h -57 c -4.969,0 -9,-4.031 -9,-9 v -57 c 0,-4.969 4.031,-9 9,-9 z"
             style="fill:#ffffff;fill-opacity:1;fill-rule:nonzero;stroke:#b10dc9;stroke-width:9;stroke-linecap:butt;stroke-linejoin:miter;stroke-miterlimit:4;stroke-dasharray:none;stroke-opacity:1"
             id="path34"
             inkscape:connector-curvature="0" /></g></g></g><g
       id="g36"><g
         id="g38"
         clip-path="url(#clipPath42)"><g
           id="g44"
           transform="matrix(1,0,0,-1,0,595)"><path
             d="m 160.5,61.5 h 57 c 4.969,0 9,4.031 9,9 v 57 c 0,4.969 -4.031,9 -9,9 h -57 c -4.969,0 -9,-4.031 -9,-9 v -57 c 0,-4.969 4.031,-9 9,-9 z"
             style="fill:#f012be;fill-opacity:1;fill-rule:nonzero;stroke:#111111;stroke-width:9;stroke-linecap:butt;stroke-linejoin:miter;stroke-miterlimit:4;stroke-dasharray:none;stroke-opacity:1"
             id="path46"
             inkscape:connector-curvature="0" /></g></g></g><g
       id="g48"><g
         id="g50"
         clip-path="url(#clipPath54)"><g
           id="g56"
           transform="matrix(1,0,0,-1,0,595)"><path
             d="m 250.5,61.5 h 57 c 4.969,0 9,4.031 9,9 v 57 c 0,4.969 -4.031,9 -9,9 h -57 c -4.969,0 -9,-4.031 -9,-9 v -57 c 0,-4.969 4.031,-9 9,-9 z"
             style="fill:#ffffff;fill-opacity:1;fill-rule:nonzero;stroke:#3d9970;stroke-width:9;stroke-linecap:butt;stroke-linejoin:miter;stroke-miterlimit:4;stroke-dasharray:none;stroke-opacity:1"
             id="path58"
             inkscape:connector-curvature="0" /></g></g></g><g
       id="g60"><g
         id="g62"
         clip-path="url(#clipPath66)"><g
           id="g68"
           transform="matrix(1,0,0,-1,0,595)"><path
             d="m 340.5,61.5 h 57 c 4.969,0 9,4.031 9,9 v 57 c 0,4.969 -4.031,9 -9,9 h -57 c -4.969,0 -9,-4.031 -9,-9 v -57 c 0,-4.969 4.031,-9 9,-9 z"
             style="fill:#ffffff;fill-opacity:1;fill-rule:nonzero;stroke:#111111;stroke-width:9;stroke-linecap:butt;stroke-linejoin:miter;stroke-miterlimit:4;stroke-dasharray:none;stroke-opacity:1"
             id="path70"
             inkscape:connector-curvature="0" /></g></g></g><g
       id="g72"><g
         id="g74"
         clip-path="url(#clipPath78)"><g
           id="g80"
           transform="matrix(1,0,0,-1,0,595)"><path
             d="m 430.5,61.5 h 57 c 4.969,0 9,4.031 9,9 v 57 c 0,4.969 -4.031,9 -9,9 h -57 c -4.969,0 -9,-4.031 -9,-9 v -57 c 0,-4.969 4.031,-9 9,-9 z"
             style="fill:#001f3e;fill-opacity:1;fill-rule:nonzero;stroke:#01ff70;stroke-width:9;stroke-linecap:butt;stroke-linejoin:miter;stroke-miterlimit:4;stroke-dasharray:none;stroke-opacity:1"
             id="path82"
             inkscape:connector-curvature="0" /></g></g></g><g
       id="g426"><g
         id="g428"
         clip-path="url(#clipPath432)"><path
           d="m 110.25,488.5 c -2.648,0 -5.086,-0.918 -7.008,-2.449 l -12.008,7.508 c 0.356,1.609 0.356,3.273 0,4.882 l 12.008,7.508 c 1.922,-1.531 4.36,-2.449 7.008,-2.449 6.215,0 11.25,5.035 11.25,11.25 0,6.215 -5.035,11.25 -11.25,11.25 -6.215,0 -11.25,-5.035 -11.25,-11.25 0,-0.84 0.094,-1.656 0.266,-2.441 l -12.008,-7.508 c -1.922,1.531 -4.36,2.449 -7.008,2.449 C 74.035,507.25 69,502.215 69,496 c 0,-6.215 5.035,-11.25 11.25,-11.25 2.648,0 5.086,0.918 7.008,2.449 l 12.008,-7.508 C 99.09,478.891 99,478.07 99,477.25 99,471.035 104.035,466 110.25,466 c 6.215,0 11.25,5.035 11.25,11.25 0,6.215 -5.035,11.25 -11.25,11.25 z"
           style="fill:#001f3e;fill-opacity:1;fill-rule:nonzero;stroke:none"
           id="path434"
           inkscape:connector-curvature="0" /></g></g><g
       id="g436"><g
         id="g438"
         clip-path="url(#clipPath442)"><path
           d="m 195.188,512.664 -2.278,2.438 c -0.531,0.566 -0.5,1.457 0.067,1.988 l 5.089,4.773 c 0.262,0.246 0.606,0.379 0.961,0.379 h 3.703 c 0.778,0 1.407,-0.629 1.407,-1.406 v -14.891 h 3.008 c 0.773,0 1.406,-0.629 1.406,-1.406 v -3.391 c 0,-0.773 -0.633,-1.406 -1.406,-1.406 h -12.797 c -0.774,0 -1.407,0.633 -1.407,1.406 v 3.391 c 0,0.777 0.633,1.406 1.407,1.406 h 2.98 v 6.789 c -0.851,-0.769 -1.664,-0.574 -2.14,-0.07 z m -3.583,-27.957 c 0,3.828 2.797,7.895 7.981,7.895 4.484,0 9.309,-3.383 9.309,-10.809 0,-6.008 -3.778,-12.395 -10.782,-12.395 -2.09,0 -3.578,0.418 -4.515,0.793 -0.68,0.274 -1.032,1.028 -0.813,1.727 l 1.082,3.453 c 0.238,0.762 1.063,1.168 1.813,0.902 1.527,-0.539 3.269,-0.617 4.465,0.489 -4.54,-0.598 -8.54,2.968 -8.54,7.945 z m 10.813,-2.266 c 0,2.614 -1.793,4.278 -3.027,4.278 -1.012,0 -1.543,-0.934 -1.543,-1.856 0,-0.664 0.214,-2.832 2.949,-2.832 1.172,0 1.57,0.254 1.613,0.321 0,0.007 0.008,0.035 0.008,0.089 z m -41.543,26.684 h 5.625 v -37.5 c 0,-1.035 0.84,-1.875 1.875,-1.875 h 3.75 c 1.035,0 1.875,0.84 1.875,1.875 v 37.5 h 5.621 c 1.668,0 2.508,2.02 1.328,3.199 l -9.375,9.375 c -0.73,0.735 -1.918,0.735 -2.648,0 l -9.375,-9.375 c -1.176,-1.176 -0.344,-3.199 1.324,-3.199 z"
           style="fill:#ffffff;fill-opacity:1;fill-rule:nonzero;stroke:none"
           id="path444"
           inkscape:connector-curvature="0" /></g></g><g
       id="g446"><g
         id="g448"
         clip-path="url(#clipPath452)"><path
           d="m 259.715,469.281 c -0.035,1.879 1.535,3.414 3.414,3.414 h 7.301 v 0.672 h -14.75 c -1.879,0 -3.45,1.535 -3.414,3.414 0.035,1.817 1.519,3.281 3.347,3.281 h 14.817 v 0.668 h -18.016 c -1.879,0 -3.449,1.54 -3.414,3.415 0.035,1.82 1.52,3.285 3.348,3.285 h 18.082 v 0.668 h -14.668 c -1.875,0 -3.45,1.535 -3.414,3.414 0.035,1.82 1.523,3.281 3.347,3.281 h 19.754 l -3.64,2.652 c -1.497,1.086 -1.829,3.18 -0.739,4.676 1.086,1.496 3.18,1.824 4.676,0.738 l 14.457,-10.511 c 1.039,-0.758 1.652,-1.965 1.652,-3.25 v -16.539 c 0,-1.868 -1.281,-3.485 -3.097,-3.914 l -9.43,-2.219 C 278.121,466.145 276.887,466 275.648,466 h -12.586 c -1.828,0 -3.312,1.465 -3.347,3.281 z m 8.582,26.449 h 4.269 l -1.308,0.954 c -2.18,1.586 -2.383,4.793 -0.375,6.628 l -1.524,1.958 c -1.152,1.48 -3.332,1.777 -4.789,0.593 -1.414,-1.144 -1.656,-3.215 -0.535,-4.656 z m 33.199,0.25 -0.586,17.864 c -0.058,1.847 -1.605,3.297 -3.453,3.238 -1.852,-0.062 -3.301,-1.609 -3.238,-3.457 l 0.148,-4.504 -12.137,15.586 c -1.121,1.445 -3.191,1.715 -4.648,0.625 -1.5,-1.125 -1.75,-3.309 -0.594,-4.789 l 9.008,-11.574 -0.527,-0.41 -11.11,14.265 c -1.121,1.442 -3.187,1.715 -4.644,0.625 -1.504,-1.125 -1.75,-3.308 -0.598,-4.789 l 11.071,-14.215 -0.532,-0.41 -9.101,11.688 c -1.121,1.441 -3.192,1.715 -4.649,0.625 -1.5,-1.125 -1.746,-3.309 -0.594,-4.789 l 6.102,-7.836 c 1.461,0.968 3.402,0.972 4.883,-0.106 l 14.457,-10.512 c 1.277,-0.929 2.039,-2.429 2.039,-4.007 v -1.993 l 7.156,5.571 c 1.016,0.789 1.59,2.019 1.547,3.304 z"
           style="fill:#3d9970;fill-opacity:1;fill-rule:nonzero;stroke:none"
           id="path454"
           inkscape:connector-curvature="0" /></g></g><g
       id="g456"><g
         id="g458"
         clip-path="url(#clipPath462)"><path
           d="m 349.312,506.539 v -35.383 c 0,-0.777 0.629,-1.406 1.407,-1.406 h 6.562 c 0.778,0 1.407,0.629 1.407,1.406 v 35.383 h 5.398 c 2.504,0 3.758,3.031 1.988,4.801 l -10.086,10.086 c -1.097,1.097 -2.879,1.097 -3.976,0 L 341.926,511.34 c -1.77,-1.77 -0.516,-4.801 1.988,-4.801 z"
           style="fill:#f012be;fill-opacity:1;fill-rule:nonzero;stroke:none"
           id="path464"
           inkscape:connector-curvature="0" /></g></g><g
       id="g466"><g
         id="g468"
         clip-path="url(#clipPath472)"><path
           d="m 486.961,506.723 c -0.551,0.453 -13.094,10.539 -15.852,12.73 C 468.52,521.523 464.09,526 459,526 c -5.062,0 -9.449,-4.422 -12.109,-6.547 -2.868,-2.277 -15.36,-12.328 -15.84,-12.719 -1.297,-1.07 -2.051,-2.664 -2.051,-4.347 v -30.762 c 0,-3.105 2.52,-5.625 5.625,-5.625 h 48.75 c 3.105,0 5.625,2.52 5.625,5.625 v 30.762 c 0,1.675 -0.75,3.265 -2.039,4.336 z m -3.586,-34.395 c 0,-0.387 -0.316,-0.703 -0.703,-0.703 h -47.344 c -0.387,0 -0.703,0.316 -0.703,0.703 v 29.727 c 0,0.211 0.094,0.41 0.262,0.547 1.859,1.5 12.75,10.257 15.511,12.453 2.129,1.703 5.836,5.32 8.602,5.32 2.777,0 6.547,-3.676 8.602,-5.32 2.761,-2.196 13.652,-10.953 15.511,-12.457 0.168,-0.133 0.262,-0.336 0.262,-0.547 z m -3.75,21.996 c 0.5,-0.605 0.406,-1.5 -0.203,-1.988 -3.395,-2.731 -6.945,-5.578 -8.313,-6.664 -2.66,-2.125 -7.047,-6.547 -12.109,-6.547 -5.094,0 -9.527,4.48 -12.109,6.547 -1.321,1.051 -4.891,3.914 -8.313,6.664 -0.609,0.488 -0.703,1.383 -0.203,1.988 l 1.789,2.172 c 0.488,0.594 1.363,0.684 1.965,0.203 3.351,-2.695 6.863,-5.511 8.269,-6.629 2.055,-1.644 5.825,-5.32 8.602,-5.32 2.766,0 6.473,3.617 8.602,5.32 1.406,1.118 4.918,3.934 8.269,6.629 0.602,0.481 1.477,0.391 1.969,-0.203 z"
           style="fill:#0074d9;fill-opacity:1;fill-rule:nonzero;stroke:none"
           id="path474"
           inkscape:connector-curvature="0" /></g></g></g></svg>