<?xml version="1.0" encoding="UTF-8" standalone="no"?>
<!-- Created with Inkscape (http://www.inkscape.org/) -->

<svg
   xmlns:dc="http://purl.org/dc/elements/1.1/"
   xmlns:cc="http://creativecommons.org/ns#"
   xmlns:rdf="http://www.w3.org/1999/02/22-rdf-syntax-ns#"
   xmlns:svg="http://www.w3.org/2000/svg"
   xmlns="http://www.w3.org/2000/svg"
   xmlns:sodipodi="http://sodipodi.sourceforge.net/DTD/sodipodi-0.dtd"
   xmlns:inkscape="http://www.inkscape.org/namespaces/inkscape"
   version="1.1"
   id="svg2"
   xml:space="preserve"
   width="472"
   height="112"
   viewBox="0 0 472.00002 112"
   sodipodi:docname="hashIcons.svg"
   inkscape:version="0.92.2 5c3e80d, 2017-08-06"><metadata
     id="metadata8"><rdf:RDF><cc:Work
         rdf:about=""><dc:format>image/svg+xml</dc:format><dc:type
           rdf:resource="http://purl.org/dc/dcmitype/StillImage" /><dc:title /></cc:Work></rdf:RDF></metadata><defs
     id="defs6"><clipPath
       clipPathUnits="userSpaceOnUse"
       id="clipPath20"><path
         d="M 54,541 H 787 V 76.301 H 54 Z"
         id="path18"
         inkscape:connector-curvature="0" /></clipPath><clipPath
       clipPathUnits="userSpaceOnUse"
       id="clipPath30"><path
         d="m 54,541 h 90 V 451 H 54 Z"
         id="path28"
         inkscape:connector-curvature="0" /></clipPath><clipPath
       clipPathUnits="userSpaceOnUse"
       id="clipPath42"><path
         d="m 144,541 h 90 v -90 h -90 z"
         id="path40"
         inkscape:connector-curvature="0" /></clipPath><clipPath
       clipPathUnits="userSpaceOnUse"
       id="clipPath54"><path
         d="m 234,541 h 90 v -90 h -90 z"
         id="path52"
         inkscape:connector-curvature="0" /></clipPath><clipPath
       clipPathUnits="userSpaceOnUse"
       id="clipPath66"><path
         d="m 324,541 h 90 v -90 h -90 z"
         id="path64"
         inkscape:connector-curvature="0" /></clipPath><clipPath
       clipPathUnits="userSpaceOnUse"
       id="clipPath78"><path
         d="m 414,541 h 90 v -90 h -90 z"
         id="path76"
         inkscape:connector-curvature="0" /></clipPath><clipPath
       clipPathUnits="userSpaceOnUse"
       id="clipPath90"><path
         d="m 504,541 h 90 v -90 h -90 z"
         id="path88"
         inkscape:connector-curvature="0" /></clipPath><clipPath
       clipPathUnits="userSpaceOnUse"
       id="clipPath102"><path
         d="m 594,541 h 90 v -90 h -90 z"
         id="path100"
         inkscape:connector-curvature="0" /></clipPath><clipPath
       clipPathUnits="userSpaceOnUse"
       id="clipPath114"><path
         d="m 684,541 h 90 v -90 h -90 z"
         id="path112"
         inkscape:connector-curvature="0" /></clipPath><clipPath
       clipPathUnits="userSpaceOnUse"
       id="clipPath126"><path
         d="m 54,448 h 90 V 358 H 54 Z"
         id="path124"
         inkscape:connector-curvature="0" /></clipPath><clipPath
       clipPathUnits="userSpaceOnUse"
       id="clipPath138"><path
         d="m 144,448 h 90 v -90 h -90 z"
         id="path136"
         inkscape:connector-curvature="0" /></clipPath><clipPath
       clipPathUnits="userSpaceOnUse"
       id="clipPath150"><path
         d="m 234,448 h 90 v -90 h -90 z"
         id="path148"
         inkscape:connector-curvature="0" /></clipPath><clipPath
       clipPathUnits="userSpaceOnUse"
       id="clipPath162"><path
         d="m 324,448 h 90 v -90 h -90 z"
         id="path160"
         inkscape:connector-curvature="0" /></clipPath><clipPath
       clipPathUnits="userSpaceOnUse"
       id="clipPath174"><path
         d="m 414,448 h 90 v -90 h -90 z"
         id="path172"
         inkscape:connector-curvature="0" /></clipPath><clipPath
       clipPathUnits="userSpaceOnUse"
       id="clipPath186"><path
         d="m 504,448 h 90 v -90 h -90 z"
         id="path184"
         inkscape:connector-curvature="0" /></clipPath><clipPath
       clipPathUnits="userSpaceOnUse"
       id="clipPath198"><path
         d="m 594,448 h 90 v -90 h -90 z"
         id="path196"
         inkscape:connector-curvature="0" /></clipPath><clipPath
       clipPathUnits="userSpaceOnUse"
       id="clipPath210"><path
         d="m 684,448 h 90 v -90 h -90 z"
         id="path208"
         inkscape:connector-curvature="0" /></clipPath><clipPath
       clipPathUnits="userSpaceOnUse"
       id="clipPath222"><path
         d="m 54,355 h 90 V 265 H 54 Z"
         id="path220"
         inkscape:connector-curvature="0" /></clipPath><clipPath
       clipPathUnits="userSpaceOnUse"
       id="clipPath234"><path
         d="m 144,355 h 90 v -90 h -90 z"
         id="path232"
         inkscape:connector-curvature="0" /></clipPath><clipPath
       clipPathUnits="userSpaceOnUse"
       id="clipPath246"><path
         d="m 234,355 h 90 v -90 h -90 z"
         id="path244"
         inkscape:connector-curvature="0" /></clipPath><clipPath
       clipPathUnits="userSpaceOnUse"
       id="clipPath258"><path
         d="m 324,355 h 90 v -90 h -90 z"
         id="path256"
         inkscape:connector-curvature="0" /></clipPath><clipPath
       clipPathUnits="userSpaceOnUse"
       id="clipPath270"><path
         d="m 54,262 h 90 V 172 H 54 Z"
         id="path268"
         inkscape:connector-curvature="0" /></clipPath><clipPath
       clipPathUnits="userSpaceOnUse"
       id="clipPath282"><path
         d="m 144,262 h 90 v -90 h -90 z"
         id="path280"
         inkscape:connector-curvature="0" /></clipPath><clipPath
       clipPathUnits="userSpaceOnUse"
       id="clipPath294"><path
         d="m 234,262 h 90 v -90 h -90 z"
         id="path292"
         inkscape:connector-curvature="0" /></clipPath><clipPath
       clipPathUnits="userSpaceOnUse"
       id="clipPath306"><path
         d="m 324,262 h 90 v -90 h -90 z"
         id="path304"
         inkscape:connector-curvature="0" /></clipPath><clipPath
       clipPathUnits="userSpaceOnUse"
       id="clipPath318"><path
         d="M 643.301,112.301 H 782.5 v -36 H 643.301 Z"
         id="path316"
         inkscape:connector-curvature="0" /></clipPath><clipPath
       clipPathUnits="userSpaceOnUse"
       id="clipPath324"><path
         d="M 646.301,112.301 H 779.5 c 1.656,0 3,-1.344 3,-3 v -30 c 0,-1.656 -1.344,-3 -3,-3 H 646.301 c -1.656,0 -3,1.344 -3,3 v 30 c 0,1.656 1.344,3 3,3 z"
         id="path322"
         inkscape:connector-curvature="0" /></clipPath><clipPath
       clipPathUnits="userSpaceOnUse"
       id="clipPath334"><path
         d="M 54,541 H 787 V 76.301 H 54 Z"
         id="path332"
         inkscape:connector-curvature="0" /></clipPath><clipPath
       clipPathUnits="userSpaceOnUse"
       id="clipPath342"><path
         d="M 652,112 H 774 V 91 H 652 Z"
         id="path340"
         inkscape:connector-curvature="0" /></clipPath><clipPath
       clipPathUnits="userSpaceOnUse"
       id="clipPath354"><path
         d="M 54,541 H 787 V 76.301 H 54 Z"
         id="path352"
         inkscape:connector-curvature="0" /></clipPath><clipPath
       clipPathUnits="userSpaceOnUse"
       id="clipPath360"><path
         d="m 676,93 h 35 V 75 h -35 z"
         id="path358"
         inkscape:connector-curvature="0" /></clipPath><clipPath
       clipPathUnits="userSpaceOnUse"
       id="clipPath372"><path
         d="M 54,541 H 787 V 76.301 H 54 Z"
         id="path370"
         inkscape:connector-curvature="0" /></clipPath><clipPath
       clipPathUnits="userSpaceOnUse"
       id="clipPath378"><path
         d="m 702,93 h 22 V 75 h -22 z"
         id="path376"
         inkscape:connector-curvature="0" /></clipPath><clipPath
       clipPathUnits="userSpaceOnUse"
       id="clipPath390"><path
         d="M 54,541 H 787 V 76.301 H 54 Z"
         id="path388"
         inkscape:connector-curvature="0" /></clipPath><clipPath
       clipPathUnits="userSpaceOnUse"
       id="clipPath396"><path
         d="m 715,93 h 35 V 75 h -35 z"
         id="path394"
         inkscape:connector-curvature="0" /></clipPath><clipPath
       clipPathUnits="userSpaceOnUse"
       id="clipPath408"><path
         d="m 69,526 h 60 V 466 H 69 Z"
         id="path406"
         inkscape:connector-curvature="0" /></clipPath><clipPath
       clipPathUnits="userSpaceOnUse"
       id="clipPath418"><path
         d="m 159,526 h 60 v -60 h -60 z"
         id="path416"
         inkscape:connector-curvature="0" /></clipPath><clipPath
       clipPathUnits="userSpaceOnUse"
       id="clipPath428"><path
         d="m 249,526 h 60 v -60 h -60 z"
         id="path426"
         inkscape:connector-curvature="0" /></clipPath><clipPath
       clipPathUnits="userSpaceOnUse"
       id="clipPath438"><path
         d="m 339,526 h 60 v -60 h -60 z"
         id="path436"
         inkscape:connector-curvature="0" /></clipPath><clipPath
       clipPathUnits="userSpaceOnUse"
       id="clipPath448"><path
         d="m 429,526 h 60 v -60 h -60 z"
         id="path446"
         inkscape:connector-curvature="0" /></clipPath><clipPath
       clipPathUnits="userSpaceOnUse"
       id="clipPath458"><path
         d="m 519,526 h 60 v -60 h -60 z"
         id="path456"
         inkscape:connector-curvature="0" /></clipPath><clipPath
       clipPathUnits="userSpaceOnUse"
       id="clipPath468"><path
         d="m 609,526 h 60 v -60 h -60 z"
         id="path466"
         inkscape:connector-curvature="0" /></clipPath><clipPath
       clipPathUnits="userSpaceOnUse"
       id="clipPath478"><path
         d="m 699,526 h 60 v -60 h -60 z"
         id="path476"
         inkscape:connector-curvature="0" /></clipPath><clipPath
       clipPathUnits="userSpaceOnUse"
       id="clipPath488"><path
         d="m 69,433 h 60 V 373 H 69 Z"
         id="path486"
         inkscape:connector-curvature="0" /></clipPath><clipPath
       clipPathUnits="userSpaceOnUse"
       id="clipPath498"><path
         d="m 159,433 h 60 v -60 h -60 z"
         id="path496"
         inkscape:connector-curvature="0" /></clipPath><clipPath
       clipPathUnits="userSpaceOnUse"
       id="clipPath508"><path
         d="m 249,433 h 60 v -60 h -60 z"
         id="path506"
         inkscape:connector-curvature="0" /></clipPath><clipPath
       clipPathUnits="userSpaceOnUse"
       id="clipPath518"><path
         d="m 339,433 h 60 v -60 h -60 z"
         id="path516"
         inkscape:connector-curvature="0" /></clipPath><clipPath
       clipPathUnits="userSpaceOnUse"
       id="clipPath528"><path
         d="m 429,433 h 60 v -60 h -60 z"
         id="path526"
         inkscape:connector-curvature="0" /></clipPath><clipPath
       clipPathUnits="userSpaceOnUse"
       id="clipPath538"><path
         d="m 519,433 h 60 v -60 h -60 z"
         id="path536"
         inkscape:connector-curvature="0" /></clipPath><clipPath
       clipPathUnits="userSpaceOnUse"
       id="clipPath548"><path
         d="m 609,433 h 60 v -60 h -60 z"
         id="path546"
         inkscape:connector-curvature="0" /></clipPath><clipPath
       clipPathUnits="userSpaceOnUse"
       id="clipPath558"><path
         d="m 699,433 h 60 v -60 h -60 z"
         id="path556"
         inkscape:connector-curvature="0" /></clipPath><clipPath
       clipPathUnits="userSpaceOnUse"
       id="clipPath568"><path
         d="m 69,340 h 60 V 280 H 69 Z"
         id="path566"
         inkscape:connector-curvature="0" /></clipPath><clipPath
       clipPathUnits="userSpaceOnUse"
       id="clipPath578"><path
         d="m 159,340 h 60 v -60 h -60 z"
         id="path576"
         inkscape:connector-curvature="0" /></clipPath><clipPath
       clipPathUnits="userSpaceOnUse"
       id="clipPath588"><path
         d="m 249,340 h 60 v -60 h -60 z"
         id="path586"
         inkscape:connector-curvature="0" /></clipPath><clipPath
       clipPathUnits="userSpaceOnUse"
       id="clipPath598"><path
         d="m 339,340 h 60 v -60 h -60 z"
         id="path596"
         inkscape:connector-curvature="0" /></clipPath><clipPath
       clipPathUnits="userSpaceOnUse"
       id="clipPath608"><path
         d="m 414,355 h 90 v -90 h -90 z"
         id="path606"
         inkscape:connector-curvature="0" /></clipPath><clipPath
       clipPathUnits="userSpaceOnUse"
       id="clipPath620"><path
         d="m 504,355 h 90 v -90 h -90 z"
         id="path618"
         inkscape:connector-curvature="0" /></clipPath><clipPath
       clipPathUnits="userSpaceOnUse"
       id="clipPath632"><path
         d="m 594,355 h 90 v -90 h -90 z"
         id="path630"
         inkscape:connector-curvature="0" /></clipPath><clipPath
       clipPathUnits="userSpaceOnUse"
       id="clipPath644"><path
         d="m 684,355 h 90 v -90 h -90 z"
         id="path642"
         inkscape:connector-curvature="0" /></clipPath><clipPath
       clipPathUnits="userSpaceOnUse"
       id="clipPath656"><path
         d="m 429,340 h 60 v -60 h -60 z"
         id="path654"
         inkscape:connector-curvature="0" /></clipPath><clipPath
       clipPathUnits="userSpaceOnUse"
       id="clipPath666"><path
         d="m 519,340 h 60 v -60 h -60 z"
         id="path664"
         inkscape:connector-curvature="0" /></clipPath><clipPath
       clipPathUnits="userSpaceOnUse"
       id="clipPath676"><path
         d="m 609,340 h 60 v -60 h -60 z"
         id="path674"
         inkscape:connector-curvature="0" /></clipPath><clipPath
       clipPathUnits="userSpaceOnUse"
       id="clipPath686"><path
         d="m 699,340 h 60 v -60 h -60 z"
         id="path684"
         inkscape:connector-curvature="0" /></clipPath><clipPath
       clipPathUnits="userSpaceOnUse"
       id="clipPath696"><path
         d="m 69,247 h 60 V 187 H 69 Z"
         id="path694"
         inkscape:connector-curvature="0" /></clipPath><clipPath
       clipPathUnits="userSpaceOnUse"
       id="clipPath706"><path
         d="m 159,247 h 60 v -60 h -60 z"
         id="path704"
         inkscape:connector-curvature="0" /></clipPath><clipPath
       clipPathUnits="userSpaceOnUse"
       id="clipPath716"><path
         d="m 249,247 h 60 v -60 h -60 z"
         id="path714"
         inkscape:connector-curvature="0" /></clipPath><clipPath
       clipPathUnits="userSpaceOnUse"
       id="clipPath726"><path
         d="m 339,247 h 60 v -60 h -60 z"
         id="path724"
         inkscape:connector-curvature="0" /></clipPath><clipPath
       clipPathUnits="userSpaceOnUse"
       id="clipPath736"><path
         d="m 414,262 h 90 v -90 h -90 z"
         id="path734"
         inkscape:connector-curvature="0" /></clipPath><clipPath
       clipPathUnits="userSpaceOnUse"
       id="clipPath748"><path
         d="m 504,262 h 90 v -90 h -90 z"
         id="path746"
         inkscape:connector-curvature="0" /></clipPath><clipPath
       clipPathUnits="userSpaceOnUse"
       id="clipPath760"><path
         d="m 594,262 h 90 v -90 h -90 z"
         id="path758"
         inkscape:connector-curvature="0" /></clipPath><clipPath
       clipPathUnits="userSpaceOnUse"
       id="clipPath772"><path
         d="m 684,262 h 90 v -90 h -90 z"
         id="path770"
         inkscape:connector-curvature="0" /></clipPath><clipPath
       clipPathUnits="userSpaceOnUse"
       id="clipPath784"><path
         d="m 429,247 h 60 v -60 h -60 z"
         id="path782"
         inkscape:connector-curvature="0" /></clipPath><clipPath
       clipPathUnits="userSpaceOnUse"
       id="clipPath794"><path
         d="m 519,247 h 60 v -60 h -60 z"
         id="path792"
         inkscape:connector-curvature="0" /></clipPath><clipPath
       clipPathUnits="userSpaceOnUse"
       id="clipPath804"><path
         d="m 609,247 h 60 v -60 h -60 z"
         id="path802"
         inkscape:connector-curvature="0" /></clipPath><clipPath
       clipPathUnits="userSpaceOnUse"
       id="clipPath814"><path
         d="m 699,247 h 60 v -60 h -60 z"
         id="path812"
         inkscape:connector-curvature="0" /></clipPath></defs><sodipodi:namedview
     pagecolor="#ffffff"
     bordercolor="#666666"
     borderopacity="1"
     objecttolerance="10"
     gridtolerance="10"
     guidetolerance="10"
     inkscape:pageopacity="0"
     inkscape:pageshadow="2"
     inkscape:window-width="3200"
     inkscape:window-height="1720"
     id="namedview4"
     showgrid="false"
     fit-margin-top="0"
     fit-margin-left="0"
     fit-margin-right="0"
     fit-margin-bottom="0"
     inkscape:zoom="1.6827953"
     inkscape:cx="229.63702"
     inkscape:cy="-31.358421"
     inkscape:window-x="0"
     inkscape:window-y="36"
     inkscape:window-maximized="0"
     inkscape:current-layer="g10" /><g
     id="g10"
     inkscape:groupmode="layer"
     inkscape:label="out3"
     transform="matrix(1.3333333,0,0,-1.3333333,-75.999998,717.33332)"><g
       id="g24"><g
         id="g26"
         clip-path="url(#clipPath30)"><g
           id="g32"
           transform="matrix(1,0,0,-1,0,595)"><path
             d="m 70.5,61.5 h 57 c 4.969,0 9,4.031 9,9 v 57 c 0,4.969 -4.031,9 -9,9 h -57 c -4.969,0 -9,-4.031 -9,-9 v -57 c 0,-4.969 4.031,-9 9,-9 z"
             style="fill:#01ff70;fill-opacity:1;fill-rule:nonzero;stroke:#111111;stroke-width:9;stroke-linecap:butt;stroke-linejoin:miter;stroke-miterlimit:4;stroke-dasharray:none;stroke-opacity:1"
             id="path34"
             inkscape:connector-curvature="0" /></g></g></g><g
       id="g36"><g
         id="g38"
         clip-path="url(#clipPath42)"><g
           id="g44"
           transform="matrix(1,0,0,-1,0,595)"><path
             d="m 160.5,61.5 h 57 c 4.969,0 9,4.031 9,9 v 57 c 0,4.969 -4.031,9 -9,9 h -57 c -4.969,0 -9,-4.031 -9,-9 v -57 c 0,-4.969 4.031,-9 9,-9 z"
             style="fill:#39cccc;fill-opacity:1;fill-rule:nonzero;stroke:#111111;stroke-width:9;stroke-linecap:butt;stroke-linejoin:miter;stroke-miterlimit:4;stroke-dasharray:none;stroke-opacity:1"
             id="path46"
             inkscape:connector-curvature="0" /></g></g></g><g
       id="g48"><g
         id="g50"
         clip-path="url(#clipPath54)"><g
           id="g56"
           transform="matrix(1,0,0,-1,0,595)"><path
             d="m 250.5,61.5 h 57 c 4.969,0 9,4.031 9,9 v 57 c 0,4.969 -4.031,9 -9,9 h -57 c -4.969,0 -9,-4.031 -9,-9 v -57 c 0,-4.969 4.031,-9 9,-9 z"
             style="fill:#ff4136;fill-opacity:1;fill-rule:nonzero;stroke:#ff4136;stroke-width:9;stroke-linecap:butt;stroke-linejoin:miter;stroke-miterlimit:4;stroke-dasharray:none;stroke-opacity:1"
             id="path58"
             inkscape:connector-curvature="0" /></g></g></g><g
       id="g60"><g
         id="g62"
         clip-path="url(#clipPath66)"><g
           id="g68"
           transform="matrix(1,0,0,-1,0,595)"><path
             d="m 340.5,61.5 h 57 c 4.969,0 9,4.031 9,9 v 57 c 0,4.969 -4.031,9 -9,9 h -57 c -4.969,0 -9,-4.031 -9,-9 v -57 c 0,-4.969 4.031,-9 9,-9 z"
             style="fill:#3d9970;fill-opacity:1;fill-rule:nonzero;stroke:#3d9970;stroke-width:9;stroke-linecap:butt;stroke-linejoin:miter;stroke-miterlimit:4;stroke-dasharray:none;stroke-opacity:1"
             id="path70"
             inkscape:connector-curvature="0" /></g></g></g><g
       id="g402"><g
         id="g404"
         clip-path="url(#clipPath408)"><path
           d="m 115.875,469.75 h -41.25 c -3.105,0 -5.625,2.52 -5.625,5.625 v 41.25 c 0,3.105 2.52,5.625 5.625,5.625 h 41.25 c 3.105,0 5.625,-2.52 5.625,-5.625 v -41.25 c 0,-3.105 -2.52,-5.625 -5.625,-5.625 z M 96.902,505.152 81,489.25 80.262,482.559 c -0.094,-0.891 0.656,-1.653 1.558,-1.559 l 6.692,0.738 15.902,15.903 c 0.27,0.269 0.27,0.714 0,0.996 l -6.504,6.504 c -0.293,0.281 -0.738,0.281 -1.008,0.011 z m 12.528,1.5 -3.528,3.528 c -1.101,1.101 -2.882,1.101 -3.972,0 l -2.707,-2.707 c -0.27,-0.27 -0.27,-0.715 0,-0.996 l 6.504,-6.504 c 0.269,-0.27 0.714,-0.27 0.996,0 l 2.707,2.707 c 1.09,1.09 1.09,2.871 0,3.972 z"
           style="fill:#111111;fill-opacity:1;fill-rule:nonzero;stroke:none"
           id="path410"
           inkscape:connector-curvature="0" /></g></g><g
       id="g412"><g
         id="g414"
         clip-path="url(#clipPath418)"><path
           d="m 225.742,474.438 c 2.16,-3.75 -0.554,-8.438 -4.875,-8.438 h -56.234 c -4.328,0 -7.031,4.695 -4.875,8.438 l 28.121,48.75 c 2.164,3.753 7.582,3.746 9.742,0 z m -32.992,10.078 c -2.977,0 -5.391,-2.414 -5.391,-5.391 0,-2.977 2.414,-5.391 5.391,-5.391 2.977,0 5.391,2.414 5.391,5.391 0,2.977 -2.414,5.391 -5.391,5.391 z m -5.117,19.375 0.867,-15.938 c 0.043,-0.746 0.66,-1.328 1.406,-1.328 h 5.688 c 0.746,0 1.363,0.582 1.406,1.328 l 0.867,15.938 c 0.043,0.808 -0.597,1.484 -1.402,1.484 h -7.43 c -0.805,0 -1.445,-0.676 -1.402,-1.484 z"
           style="fill:#111111;fill-opacity:1;fill-rule:nonzero;stroke:none"
           id="path420"
           inkscape:connector-curvature="0" /></g></g><g
       id="g422"><g
         id="g424"
         clip-path="url(#clipPath428)"><path
           d="m 310.875,518.5 h -1.422 c -1.488,0 -2.922,-0.594 -3.976,-1.648 L 294,505.375 v 7.5 c 0,3.105 -2.52,5.625 -5.625,5.625 h -33.75 c -3.105,0 -5.625,-2.52 -5.625,-5.625 v -33.75 c 0,-3.105 2.52,-5.625 5.625,-5.625 h 33.75 c 3.105,0 5.625,2.52 5.625,5.625 v 7.5 l 11.477,-11.477 c 1.054,-1.054 2.488,-1.648 3.976,-1.648 h 1.422 c 3.105,0 5.625,2.52 5.625,5.625 v 33.75 c 0,3.105 -2.52,5.625 -5.625,5.625 z"
           style="fill:#ffffff;fill-opacity:1;fill-rule:nonzero;stroke:none"
           id="path430"
           inkscape:connector-curvature="0" /></g></g><g
       id="g432"><g
         id="g434"
         clip-path="url(#clipPath438)"><path
           d="m 339,475.375 c 0,-3.105 2.52,-5.625 5.625,-5.625 h 56.25 c 3.105,0 5.625,2.52 5.625,5.625 V 496 H 339 Z m 22.5,7.969 c 0,0.773 0.633,1.406 1.406,1.406 h 15.938 c 0.773,0 1.406,-0.633 1.406,-1.406 v -4.688 c 0,-0.773 -0.633,-1.406 -1.406,-1.406 h -15.938 c -0.773,0 -1.406,0.633 -1.406,1.406 z m -15,0 c 0,0.773 0.633,1.406 1.406,1.406 h 8.438 c 0.773,0 1.406,-0.633 1.406,-1.406 v -4.688 c 0,-0.773 -0.633,-1.406 -1.406,-1.406 h -8.438 c -0.773,0 -1.406,0.633 -1.406,1.406 z m 60,33.281 V 511 H 339 v 5.625 c 0,3.105 2.52,5.625 5.625,5.625 h 56.25 c 3.105,0 5.625,-2.52 5.625,-5.625 z"
           style="fill:#ffffff;fill-opacity:1;fill-rule:nonzero;stroke:none"
           id="path440"
           inkscape:connector-curvature="0" /></g></g></g></svg>